<svg xmlns="http://www.w3.org/2000/svg" viewBox="0 0 1200 360">
  <defs>
    <linearGradient id="frame" x1="0" y1="0" x2="0" y2="1">
      <stop offset="0" stop-color="#6d4a24"/>
      <stop offset=".22" stop-color="#20150c"/>
      <stop offset=".55" stop-color="#0d0a07"/>
      <stop offset=".82" stop-color="#2b1d10"/>
      <stop offset="1" stop-color="#785126"/>
    </linearGradient>
    <linearGradient id="brass" x1="0" y1="0" x2="1" y2="1">
      <stop offset="0" stop-color="#8f5d25"/>
      <stop offset=".18" stop-color="#e2b85f"/>
      <stop offset=".5" stop-color="#a56b2b"/>
      <stop offset=".72" stop-color="#f0cb78"/>
      <stop offset="1" stop-color="#684119"/>
    </linearGradient>
    <radialGradient id="gaugeFace">
      <stop offset="0" stop-color="#f1d591"/>
      <stop offset=".72" stop-color="#c99d4a"/>
      <stop offset="1" stop-color="#6e461c"/>
    </radialGradient>
    <filter id="shadow" x="-20%" y="-20%" width="140%" height="160%">
      <feDropShadow dx="0" dy="12" stdDeviation="10" flood-color="#000" flood-opacity=".65"/>
    </filter>
  </defs>

  <rect x="32" y="36" width="1136" height="288" rx="30" fill="url(#frame)" stroke="#b57a35" stroke-width="8" filter="url(#shadow)"/>
  <rect x="48" y="52" width="1104" height="256" rx="22" fill="#0c0906" stroke="#3b2714" stroke-width="6"/>
  <rect x="70" y="70" width="1060" height="220" rx="12" fill="#16100b" stroke="#7a5429" stroke-width="4"/>

  <g fill="#9a692f" stroke="#2a190c" stroke-width="3">
    <circle cx="74" cy="74" r="13"/><circle cx="1126" cy="74" r="13"/>
    <circle cx="74" cy="286" r="13"/><circle cx="1126" cy="286" r="13"/>
  </g>

  <rect x="343" y="92" width="565" height="150" rx="12" fill="url(#brass)" stroke="#4c2b10" stroke-width="6"/>
  <rect x="358" y="107" width="535" height="120" rx="8" fill="none" stroke="#efc66f" stroke-opacity=".45" stroke-width="3"/>

  <g fill="#6b431a" stroke="#2c1709" stroke-width="2">
    <circle cx="370" cy="119" r="8"/><circle cx="880" cy="119" r="8"/>
    <circle cx="370" cy="215" r="8"/><circle cx="880" cy="215" r="8"/>
  </g>

  <circle cx="222" cy="214" r="102" fill="#2a180b" stroke="#b27c39" stroke-width="8"/>
  <circle cx="222" cy="214" r="84" fill="url(#gaugeFace)" stroke="#3b230f" stroke-width="5"/>
  <circle cx="222" cy="214" r="69" fill="none" stroke="#5e3816" stroke-width="2"/>

  <g stroke="#4b2b10" stroke-width="5" stroke-linecap="round">
    <line x1="169" y1="248" x2="159" y2="257"/>
    <line x1="155" y1="222" x2="141" y2="224"/>
    <line x1="161" y1="192" x2="148" y2="186"/>
    <line x1="181" y1="168" x2="174" y2="155"/>
    <line x1="211" y1="156" x2="210" y2="141"/>
    <line x1="242" y1="160" x2="247" y2="146"/>
    <line x1="267" y1="179" x2="279" y2="169"/>
    <line x1="281" y1="207" x2="296" y2="205"/>
    <line x1="275" y1="238" x2="289" y2="244"/>
  </g>

  <g fill="#3a210d" font-family="Georgia, serif" font-size="22" font-weight="700" text-anchor="middle">
    <text x="158" y="263">0</text>
    <text x="144" y="223">20</text>
    <text x="162" y="181">40</text>
    <text x="211" y="157">60</text>
    <text x="268" y="180">80</text>
    <text x="292" y="224">100</text>
  </g>

  <circle cx="222" cy="214" r="13" fill="#8b5a22" stroke="#2f1a0a" stroke-width="4"/>

  <rect x="1015" y="107" width="95" height="164" rx="18" fill="#24160c" stroke="#7f5528" stroke-width="6"/>
  <circle cx="1070" cy="257" r="31" fill="#5a3718" stroke="#b07832" stroke-width="6"/>
  <circle cx="1070" cy="257" r="13" fill="#2a180b" stroke="#e2b860" stroke-width="3"/>

  <rect x="586" y="24" width="88" height="58" rx="9" fill="#332013" stroke="#a06d32" stroke-width="5"/>
  <rect x="600" y="5" width="60" height="42" rx="8" fill="#24160c" stroke="#a06d32" stroke-width="5"/>
</svg>
